<svg width="24" height="24" viewBox="0 0 24 24" fill="none" xmlns="http://www.w3.org/2000/svg">
<path d="M14.74 9.00001L14.394 18M9.606 18L9.26 9.00001M19.228 5.79001C19.5693 5.84201 19.91 5.89735 20.25 5.95601M19.228 5.79001L18.16 19.673C18.1164 20.2382 17.8611 20.7662 17.445 21.1513C17.029 21.5363 16.4829 21.7502 15.916 21.75H8.084C7.5171 21.7502 6.97102 21.5363 6.55498 21.1513C6.13894 20.7662 5.88359 20.2382 5.84 19.673L4.772 5.79001M19.228 5.79001C18.0739 5.61544 16.9138 5.48302 15.75 5.39301M4.772 5.79001C4.43067 5.84135 4.09 5.89635 3.75 5.95501M4.772 5.79001C5.92612 5.61544 7.08623 5.48302 8.25 5.39301M15.75 5.39301V4.47701C15.75 3.29701 14.84 2.31301 13.66 2.27601C12.5536 2.24068 11.4464 2.24068 10.34 2.27601C9.16 2.31301 8.25 3.29801 8.25 4.47701V5.39301M15.75 5.39301C13.2537 5.20141 10.7463 5.20141 8.25 5.39301" stroke="black" stroke-width="1.5" stroke-linecap="round" stroke-linejoin="round"/>
</svg>
